<svg xmlns="http://www.w3.org/2000/svg" width="1400" height="900" viewBox="0 0 1400 900">
  <defs>
    <radialGradient id="halo" cx="62%" cy="38%" r="58%">
      <stop offset="0" stop-color="#263437"/>
      <stop offset=".52" stop-color="#0b1012"/>
      <stop offset="1" stop-color="#050608"/>
    </radialGradient>
    <linearGradient id="body" x1="80" y1="0" x2="1320" y2="0">
      <stop offset="0" stop-color="#f8fffb"/>
      <stop offset=".4" stop-color="#aab7b5"/>
      <stop offset=".72" stop-color="#ffffff"/>
      <stop offset="1" stop-color="#718080"/>
    </linearGradient>
    <linearGradient id="trace" x1="0" y1="0" x2="1" y2="0">
      <stop offset="0" stop-color="#b6ff3b" stop-opacity="0"/>
      <stop offset=".5" stop-color="#b6ff3b"/>
      <stop offset="1" stop-color="#28f0d4" stop-opacity="0"/>
    </linearGradient>
  </defs>
  <rect width="1400" height="900" fill="url(#halo)"/>
  <g opacity=".16" stroke="#f4f7f8">
    <path d="M100 180H1190L1340 320V790H210L100 680Z" fill="none"/>
    <path d="M180 260H1260M140 430H1320M180 600H1260"/>
    <path d="M360 180V790M640 180V790M920 180V790M1200 260V790"/>
  </g>
  <path d="M62 610 C236 450 408 373 642 370 C856 368 1048 430 1264 568 L1338 644 L96 644 Z" fill="url(#body)"/>
  <path d="M420 402 C545 330 765 328 930 402 L1015 476 L285 476 Z" fill="#05090b"/>
  <path d="M530 400 C640 354 790 354 900 400 L830 445 H430 Z" fill="#10191d"/>
  <path d="M102 641H1338" stroke="#b6ff3b" stroke-width="8"/>
  <path d="M170 578 C378 545 908 544 1160 590" fill="none" stroke="#050608" stroke-width="18" opacity=".22"/>
  <circle cx="362" cy="648" r="92" fill="#050608" stroke="#2f3a3d" stroke-width="24"/>
  <circle cx="362" cy="648" r="38" fill="#b6ff3b"/>
  <circle cx="1018" cy="648" r="92" fill="#050608" stroke="#2f3a3d" stroke-width="24"/>
  <circle cx="1018" cy="648" r="38" fill="#28f0d4"/>
  <path d="M70 258H920" stroke="url(#trace)" stroke-width="4"/>
  <path d="M300 220H1320" stroke="url(#trace)" stroke-width="2"/>
  <text x="90" y="126" fill="#f4f7f8" font-family="Arial, sans-serif" font-size="54" font-weight="800">HIGH PERFORMANCE CONTROL</text>
  <text x="92" y="828" fill="#9aa7a9" font-family="Arial, sans-serif" font-size="28">STATE ESTIMATION · MODEL REPLAY · VCU STRATEGY</text>
</svg>
